# xmcd
#
# Track frame offsets: 
#        150
#        16187
#        35862
#        54885
#        65907
#        79562
#        90915
#        105695
#        129277
#        141462
#        158310
#        168737
#        186910
#        203475
#        220192
#
# Disc length: 3097 seconds
#
# Revision: 0
# Processed by: cddbd v1.5.2PL0 Copyright (c) Steve Scherf et al.
# Submitted via: ExactAudioCopy v0.95b4
#
DISCID=c40c170f
DTITLE=Various Artist - ΤΑ ΝΕΑ Παίζουν JAZZ and BLUES CD3
DYEAR=1998
DGENRE=Jazz
TTITLE0=BLUEBERRY HILL
TTITLE1=DIZZY'S BUSINESS
TTITLE2=CRY ME A RIVER
TTITLE3=ROMANCE IN THE DARK
TTITLE4=SWEET GEORGIA BROWN
TTITLE5=SABRE DANCE
TTITLE6=MOONLIGHT IN VERMONT
TTITLE7=LA VIE EN ROSE
TTITLE8=LADY BE GOOD
TTITLE9=ROYAL GARDEN BLUES
TTITLE10=LIME HOUSE BLUES
TTITLE11=OH BABY
TTITLE12=I AM SPEAKING MY MIND
TTITLE13=CARAVAN
TTITLE14=SWEET ADELINE
EXTD=
EXTT0=
EXTT1=
EXTT2=
EXTT3=
EXTT4=
EXTT5=
EXTT6=
EXTT7=
EXTT8=
EXTT9=
EXTT10=
EXTT11=
EXTT12=
EXTT13=
EXTT14=
PLAYORDER=
